<?xml version="1.0" encoding="UTF-8"?>
<svg xmlns="http://www.w3.org/2000/svg" width="8.49in" height="11.25in" viewBox="0 0 611.45 809.89">
  <defs>
    <style>
      .cls-1 {
        fill: #6a7c43;
      }

      .cls-2 {
        fill: #f4e340;
      }

      .cls-3 {
        fill: #eff4e6;
      }

      .cls-4 {
        fill: #e5d039;
      }

      .cls-5 {
        fill: #7d9b53;
      }

      .cls-6 {
        fill: #7e9342;
      }

      .cls-7 {
        fill: #73894b;
      }

      .cls-8 {
        fill: #738936;
      }

      .cls-9 {
        fill: #657235;
      }

      .cls-10 {
        fill: #9ca09a;
      }

      .cls-11 {
        fill: #848981;
      }

      .cls-12 {
        fill: #84a759;
      }

      .cls-13 {
        fill: #b76732;
      }

      .cls-14 {
        fill: #66753e;
      }

      .cls-15 {
        fill: #8c918a;
      }

      .cls-16 {
        fill: #a8582c;
      }

      .cls-17 {
        fill: #af713d;
      }

      .cls-18 {
        fill: #bdd9ef;
      }

      .cls-19 {
        fill: #d27f3b;
      }

      .cls-20 {
        fill: #c67438;
      }

      .cls-21 {
        fill: #e15743;
      }

      .cls-22 {
        fill: #40789b;
      }

      .cls-23 {
        fill: #6d7f44;
      }

      .cls-24 {
        fill: #6d7f3b;
      }

      .cls-25 {
        fill: #94a84a;
      }

      .cls-26 {
        fill: #86a04d;
      }

      .cls-27 {
        fill: #9ab550;
      }

      .cls-28 {
        fill: #809e54;
      }

      .cls-29 {
        fill: #568ec1;
      }

      .cls-30 {
        fill: #4880aa;
      }

      .cls-31 {
        fill: #777a74;
      }

      .cls-32 {
        fill: #77914d;
      }

      .cls-33 {
        fill: none;
        stroke: #67580d;
        stroke-linecap: round;
        stroke-miterlimit: 10.03;
        stroke-width: 2.01px;
      }
    </style>
  </defs>
  <g id="campground">
    <g id="dirt">
      <path id="dirtL1" class="cls-19" d="M320,605.43l21.69-20.44,.1,203.03-21.88,21.88,.09-204.46Zm68.04,149.81l29.45-13.46,.51-203.43-29.36,13.46v29.98l-.6,173.44Zm79.1-15.15l29.45-34.5,23.57-26.08,31.14-12.62,31.98-10.1,20.99-18.51,6.78-11.85,.41-205.12-7.43,13.92-20.72,17.63-63.41,23.52-21.35,21.99-31.39,38.65-.02,203.1Z"/>
      <path id="dirtL2" class="cls-20" d="M418,538.31l49.16-1.32v203.06l-49.65,1.69,.49-203.43Zm-29.35,43.46l-46.97,3.18,.11,203.07,47.97-2.53-1.11-203.71Zm-105.03,12.22l-1.61,204.11,37.87,11.78,.12-204.46-36.38-11.43Z"/>
      <path id="dirtS1" class="cls-13" d="M283.63,593.99l-1.61,204.11-19.56-35.49,12.78-195.23,8.38,26.6Zm-113.68,118.37l15.08,21.12,47.26,13.07,20.4-195.76-64.69-19.59-18.05,181.16Zm-23.68-219.87l-40.72-6.63-2,202.35,42.23,8.05,25.98-187.38-25.5-16.39Zm-46.24-33.58l-32.14-11.47-1.52,203.56,21.12,8,12.54-200.08Z"/>
      <path id="dirtS2" class="cls-16" d="M252.68,550.77l22.56,16.62-12.78,195.23-30.17-16.09,20.4-195.76Zm-106.87,145.48l24.14,16.11,18.05-181.16-16.2-22.33-25.98,187.37Zm-58.32-37.21l10.05,2,6,27.15,2-202.35-5.53-26.98-12.52,200.18ZM0,625.86l18.1,25.13h48.27l1.52-203.56-49.7-1.81L.81,421.9l-.81,203.96Z"/>
    </g>
    <g id="campground-top">
      <path id="campgroundL1" class="cls-27" d="M319.96,247.19l12.21-7.54,29.68,7.73,.92,26.69-42.19-18.16-.62-8.72Zm169.9,97.48l-5.94-16.69-39.07-23.15,10.57,35.7,34.43,4.14Zm39.66,9.52l10.99,20.71,26.44,12.78-30.85,16.75-45.83,19.39-48.94,55.53,25.83,57.64,31.39-38.65,21.35-21.99,63.41-23.52,20.72-17.63,7.43-13.92-5.26-13.91-31.86-14.23-8.99-21.99-35.83-16.97Zm-126.52,126.48l-57.29,25.11,42.97,45.97,29.36-13.46-15.04-57.62Zm-82.99,124.75l21.69-20.44-24.2-60.21-7.89,35.68,10.39,44.97Zm25.69-99.6v20.28l42.97,55.71v-29.98l-42.97-46Z"/>
      <path id="campgroundL2" class="cls-25" d="M317.5,524.74l28.2,1.33,42.97,55.71-46.97,3.18-24.21-60.21Zm100.51,13.57l49.16-1.32-25.83-57.64-38.34,1.33,15.01,57.63Zm-108.39,22.15l-25.98,33.58,36.38,11.39-10.39-44.97Zm10.99-304.5l-.62-8.72-29.79,3.88,30.41,4.85Zm208.87,98.28l10.99,20.71,33.85,18.28-8.99-21.99-35.85-17Z"/>
      <path id="campgroundS1" class="cls-24" d="M140.33,410.16l-40.31,48.75-32.14-11.46,9.23-43.25,12.09-12.54,51.12,18.51Zm5.29,22.92l-40.07,52.79,40.72,6.64,25.52,16.39,37.29-48.04-39.19-23.81-24.28-3.97Zm63.46,27.76l-37.29,48.04,16.2,22.31,64.69,19.59,22.56,16.62,8.38,26.6,25.98-33.58,7.89-35.68-30.85-26.43-66.54-20.72-11.02-16.75Zm66.16,106.55l8.38,26.6,25.98-33.58,7.89-35.68-42.25,42.65Z"/>
      <path id="campgroundS2" class="cls-9" d="M140.33,410.16l5.29,22.92-40.07,52.79-5.53-26.98,40.31-48.72Zm77.53-84.56l.44-27.76-43.17,10.07-.35,21.63,43.08-3.94Zm72.28-74.48l-34.18,13-11.11,22.73-9.32,10.51,16.79-.9,32.57-34.82,5.26-10.52Zm-189.12,103.94l-7.84,14.52,29.08-7.93,14.54-24.25-35.79,17.65Zm-23.9,49.14l12.09-12.54,4-22.04-41.46,17.74-3.78,23.82,29.15-6.98Zm-9.23,43.25l9.23-43.25L.81,421.9l17.38,23.74,49.7,1.81Zm218.76,50.86l-33.98,52.47,22.56,16.62,42.25-42.65-30.83-26.43Zm-114.85,10.57l16.2,22.31,32.11-53.6-10.99-16.75-37.32,48.04Z"/>
      <polygon id="campround-base" class="cls-26" points="217.9 325.55 149.15 331.71 136.81 337.44 122.26 361.69 93.18 369.61 89.22 391.65 140.33 410.16 145.62 433.07 169.87 437.04 209.08 460.83 220.1 477.58 286.64 498.3 317.5 524.74 345.7 526.06 345.7 505.79 402.99 480.67 441.33 479.34 490.25 423.82 536.08 404.43 566.93 387.68 540.49 374.91 529.46 354.19 518.01 348.02 455.43 340.53 444.86 304.83 434.28 298.66 400.78 290.29 320.58 255.91 290.17 251.06 284.89 261.65 252.28 296.46 218.34 297.77 217.9 325.55"/>
    </g>
  </g>
  <g id="river">
    <path id="riverE" class="cls-24" d="M220.38,478.45l-4.73-7.14s32.65-.6,50.4-55.19,45.8-67.42,79.13-82.04c33.34-14.62,46.44-47.25,46.44-47.25l9.62,4.11s10.65,40.94-24.39,53.55c-35.04,12.62-79.49,92.84-117.68,116.51-38.19,23.67-38.81,17.46-38.81,17.46Z"/>
    <path id="riverL" class="cls-29" d="M286.85,498.99l-66.57-20.72s39.13-4.39,56.88-58.99c17.76-54.6,45.81-67.43,79.13-81.99,33.33-14.56,44.74-46.41,44.74-46.41l21.24,5.31s.67,38.85-34.37,51.47-22.21,66.77-60.38,90.44c-38.18,23.67-40.67,60.89-40.67,60.89Z"/>
    <polygon id="riverS1" class="cls-30" points="220.27 478.27 286.85 498.99 252.87 551.48 188.14 531.88 220.27 478.27"/>
    <polygon id="riverS2" class="cls-22" points="188.14 531.88 252.87 551.48 232.46 747.35 185.18 734.27 170.08 713.14 188.14 531.88"/>
    <path id="river-grass1" class="cls-6" d="M325.26,407.16c-1.07-3.39-2.76-10.73,.51-16.33-1.28,2.36-2.42,4.79-3.41,7.29,.78-4.73,1.15-10.29,0-15,0,0-1.36,14.07-2.84,21.14l-.51-.27c-.97-5.39-.18-10.94,2.25-15.85-2.14,3.67-3.8,7.59-4.96,11.67-1.14-8-5.74-15.56-5.74-15.56,2.66,5.31,3.37,11.39,2,17.17-1.56-6.61-3.07-22.19-3.07-22.19-1.19,4.69-.81,10.25,0,15-.99-2.5-2.13-4.93-3.41-7.3,3.27,5.61,1.58,13,.51,16.34l-3,1.55,1.1,2,5.17-.94,3.71,1.7-1.82,1,4.86,3.76,5.49-2.51,5.17,1,1.1-2-3.11-1.67Zm-6-1.85h0Z"/>
    <path id="river-rockL" class="cls-10" d="M331.7,416.17c-.5-1.66-1.34-2.35-6.55-6.54-3.01-2.31-6.51-3.91-10.23-4.67-6-1.36-11.3-.84-11.54-.59l-.09,.1c1.87-2.17,4.08-4.02,6.54-5.49,.7-.39,1.42-.72,2.17-1,2.44-.57,4.96-.71,7.45-.4,4.12,.42,8.03,2.01,11.27,4.6,5.21,4.19,10.28,11.51,7.55,15.22-1.62,2.21-6.65,2.09-11.06,1.23,2.9,.38,5.2-.07,4.49-2.46Z"/>
    <path id="river-rockS" class="cls-11" d="M302.8,405.01l.5-.54,.09-.1c.24-.25,8.27-7.45,14.26-6.1,3.47,.79,4.44,8.89,7.51,11.36,5.21,4.19,6.05,4.88,6.55,6.54,.71,2.39-1.59,2.84-4.49,2.41-1.81-.3-3.58-.8-5.29-1.48-3.73-1.48-3.09-3-6.42-3.69-.55-.12-1.13-.15-1.69-.08-2.1,.28-2.55,2.16-4.82,2.46-.63,.07-1.27,.05-1.89-.08h-1.71c-1.7,.08-4.16,.15-5.84-.73-2.02-1.04-.24-6.02,3.24-9.97Z"/>
    <path id="river-moss" class="cls-7" d="M334.83,412.1c.26-.53,.75-.9,.88-.81s-.23,.75,0,.94c.21,.09,.45,.02,.59-.16,.21-.27-.12-.56,0-1.22s.26-.61,.17-.93c-.1-.29-.34-.51-.63-.61-.51-.19-1.14,0-1.17,.24s.63,.37,.6,.61-.38,.17-.7,.43c-.37,.43-.55,1-.48,1.56,0,.81,.44,1.5,.57,1.47s-.2-.75,.17-1.52Zm-3.08-3.67c-.11-.76-.54-1.07-.42-1.9,.08-.56,.31-.63,.39-1.17,.04-.72-.19-1.44-.65-2-.77-.89-1.99-1.24-3.12-.9-.81,.29-.79,.83-1.66,1.08-1.08,.31-1.87-.31-2.05,0s.61,1.57,1.9,2.3c1.51,.86,2.55,.38,3.16,1.25,.32,.62,.39,1.33,.2,2-.29,1.27-1.22,1.73-1,2.2s1,.49,1.59,.3c1.19-.57,1.86-1.86,1.66-3.16Z"/>
    <path id="river-grass2" class="cls-26" d="M319.64,418.24c-.66-2.08-1.69-6.59,.32-10-.79,1.45-1.49,2.94-2.1,4.47,.61-3.03,.61-6.16,0-9.19,0,0-.84,8.64-1.75,13l-.31-.17c-.59-3.31-.11-6.72,1.38-9.73-1.29,2.25-2.3,4.65-3,7.15-.61-3.37-1.8-6.6-3.53-9.56,1.64,3.26,2.07,7,1.21,10.55-.95-4.07-1.88-13.63-1.88-13.63-.61,3.04-.61,6.16,0,9.2-.61-1.53-1.31-3.03-2.1-4.48,2,3.44,1,8,.31,10l-1.85,.95,.67,1.25,3.18-.58,2.28,1-1.12,.6,3,2.31,3.38-1.54,3.17,.58,.68-1.25-1.94-.93Zm-3.69-1.14h0Z"/>
    <path id="river-bubbles" class="cls-18" d="M238.4,734.96c0-2.52-2.03-4.56-4.55-4.57-.63,0-1.25,.13-1.83,.38-.33-1.17-1.32-2.02-2.52-2.17,0-.08,0-.15,0-.23,0-2.27-1.85-4.1-4.12-4.1-1.92,0-3.58,1.34-4,3.21-.52-.32-1.12-.48-1.73-.49-.51,0-1.02,.13-1.48,.35-.26-.7-.72-1.3-1.33-1.74,.17-.48,.26-.98,.26-1.48,0-2.11-1.41-3.97-3.45-4.53h0c0-3.46-2.82-6.27-6.28-6.26-1.43,0-2.83,.5-3.94,1.4-1.65-1.36-4.09-1.11-5.45,.54-.06,.08-.13,.16-.18,.24-.32-.13-.66-.2-1-.21-.62-2.65-3.28-4.29-5.93-3.67-.65,.15-1.26,.43-1.79,.83-.37-.11-.75-.17-1.14-.18-.59,0-1.18,.14-1.72,.38,0-.08,0-.17,0-.25,0-2.52-2.04-4.56-4.56-4.56-1.61,0-3.11,.86-3.93,2.25-.88-.54-1.88-.86-2.92-.93-.77-.6-1.71-.93-2.69-.93-2.45-.02-4.45,1.95-4.47,4.4,0,.67,.16,1.33,.46,1.93-.04,.29-.07,.58-.07,.87,0,3.5,2.83,6.33,6.33,6.33h0c.24,0,.47-.03,.71-.06,0,.06,0,.11,0,.17,0,1.02,.54,1.97,1.42,2.49-.88,1.66-.26,3.72,1.4,4.6,.49,.26,1.04,.4,1.6,.4h.18c-.14,.25-.22,.53-.22,.82,0,.85,.61,1.57,1.45,1.7-.59,1.39,.05,2.99,1.44,3.58,.34,.14,.7,.22,1.07,.22,.55,0,1.08-.17,1.53-.48,.06,.08,.13,.15,.2,.22,.48,.43,1.14,.59,1.76,.42,.39,2.48,2.71,4.17,5.19,3.78,1.1-.17,2.1-.75,2.81-1.61-.03,.16-.04,.32-.05,.48,0,1.61,1.31,2.92,2.92,2.91,1.04,0,1.99-.55,2.51-1.44,.6,.83,1.73,1.06,2.62,.55,.34,1.14,1.35,1.95,2.53,2.05-.1,.27-.15,.55-.15,.83-.09,1.34,.93,2.49,2.27,2.58s2.49-.93,2.58-2.27c0-.1,0-.21,0-.31,0-.21-.03-.41-.09-.61,.14-.1,.26-.22,.36-.36,.39,.5,.99,.79,1.62,.79,.35,0,.69-.09,1-.26v.08c-.02,.89,.69,1.62,1.58,1.64,.72,.01,1.36-.45,1.57-1.14,.98,1.26,2.79,1.49,4.05,.51,.02-.01,.04-.03,.06-.04,.67,.68,1.58,1.07,2.54,1.09h0c0,1.14,.93,2.07,2.07,2.07h0c.29,0,.58-.06,.85-.19,.7,1.44,2.44,2.04,3.88,1.33,.24-.12,.47-.27,.67-.45,.09,0,.18,0,.27,0,.32,0,.63-.08,.9-.24,.89,1.4,2.74,1.81,4.14,.92,.87-.55,1.39-1.52,1.39-2.55,0-.79-.32-1.55-.88-2.11,1.02-1.52,1-3.51-.06-5,1.42-.79,2.31-2.29,2.33-3.92Zm-12.12-2.53h0Z"/>
  </g>
  <g id="birds">
    <path id="birds-2" class="cls-33" d="M69.73,299.12c-5.81-3.9-10.41-.76-11.37,0m-.07-.06c.37-.79,1.14-7.1-3.74-8.72m8.02-11.55c4.12,1.35,3.47,6.67,3.15,7.33,0,0,0,.08,.06,.05,2.83-2.15,6.74-2.15,9.57,0m-4.5-18.7c3.17,1,2.68,5.14,2.44,5.66,0,0,0,.05,.05,0,2.18-1.66,5.2-1.66,7.37,0m-32.26-1.33c3.22,1.06,2.77,5.22,2.47,5.71,0,0,0,.06,0,0,2.21-1.68,5.27-1.68,7.47,0m-32.83-2.46c3.82,1.25,3.22,6.19,2.93,6.81,0,0,0,.07,.06,0,2.62-1.99,6.25-1.99,8.88,0m8.56,18.96c6.27,2.06,5.29,10.15,4.79,11.16,0,.06,0,.12,.1,.08,1.21-.95,7.12-5.02,14.58,0M2.08,277.32c4.91,1.62,4.13,7.94,3.75,8.74m.07,.06c1-.74,5.58-3.89,11.4,0"/>
  </g>
  <g id="fir">
    <polygon id="fir-trunkS" class="cls-17" points="150.38 320.98 150.48 375.82 162.2 382.69 162.2 382.64 162.2 327.85 150.38 320.98"/>
    <polygon id="fir-trunkL" class="cls-19" points="162.2 327.8 162.2 327.85 162.2 382.64 174.03 375.82 174.12 320.98 162.2 327.8"/>
    <polyline id="firS" class="cls-7" points="162.22 94.69 102.83 307.25 162.21 341.53"/>
    <polygon id="firL" class="cls-12" points="162.21 94.7 221.57 307.27 162.21 341.52 162.21 94.7"/>
  </g>
  <g id="grass">
    <path id="grassS" class="cls-8" d="M189.24,382.29c-1.17-3.69-3-11.7,.55-17.82-1.39,2.58-2.62,5.25-3.7,7.97,.85-5.15,1.26-11.22,0-16.34,0,0-1.65,17.01-3.34,24.21-1.51-6.3-.75-12.94,2.14-18.74,0,0-5,8.26-6.26,17.01-1.27-4.46-3.09-8.74-5.43-12.74,2.66,5.35,3.53,11.41,2.47,17.29l-.58,.32c-1.6-7.71-3.09-23.07-3.09-23.07-1.29,5.06-.91,11.16-.04,16.33-.56-1.45-1.18-2.83-1.74-4,.13-.28,.27-.56,.43-.83,0,0-.17,.3-.44,.82-.86-1.84-1.61-3.25-1.87-3.73-.08-1.19-.26-2.37-.54-3.52,0,0-1.25,12.87-2.53,18.34-1.15-4.78-.57-9.8,1.63-14.2-2.33,3.98-3.93,8.33-4.75,12.86-.95-3.35-2.31-6.57-4.06-9.58,2.02,4.05,2.67,8.64,1.87,13.09l-.43,.23c-1.21-5.84-2.34-17.47-2.34-17.47-1,3.87-.68,8.47,0,12.37-.79-1.93-1.68-3.82-2.67-5.65,0-2.8,.72-5.55,2.07-8-1.39,2.58-2.64,5.23-3.72,7.95,.85-5.15,1.26-11.22,0-16.34,0,0-1.65,17.01-3.34,24.21-1.51-6.3-.75-12.94,2.14-18.74,0,0-5,8.26-6.25,17.01-1.27-4.45-3.09-8.73-5.42-12.73,2.66,5.35,3.53,11.41,2.47,17.29l-.57,.3c-1.6-7.71-3.09-23.07-3.09-23.07-1.3,5.12-.89,11.18,0,16.35-1.09-2.74-2.34-5.41-3.73-8,3.57,6.12,2.16,18.44,2.16,18.44l-3.15,1.43,31.19,11.52,25.43-14.72m-48.55-.84h0Zm13.58-3.3c-.83-2.84-1.24-5.79-1.21-8.75,1.29,2.73,1.71,5.78,1.21,8.75Zm14.2-11c-.57,1.13-1.38,2.82-2.09,4.62,.52-2.94,.69-5.94,.51-8.92,.75,1.36,1.28,2.82,1.58,4.34v-.04Zm-.25,10c-.63-2.72-1-6.53,.27-9.91,.58,3.31,.49,6.69-.27,9.96v-.05Z"/>
    <path id="grassL" class="cls-26" d="M182.99,387.69c-.87-2.73-2.23-8.66,.41-13.18-1.03,1.93-1.95,3.91-2.76,5.94,.63-3.82,.94-8.31,0-12.09,0,0-1.21,12.57-2.47,17.92-1.12-4.66-.55-9.57,1.59-13.87-2.28,3.87-3.86,8.1-4.67,12.51-.94-3.29-2.28-6.45-4-9.4,1.97,3.96,2.61,8.45,1.82,12.79l-.41,.22c-1.16-5.7-2.26-17.09-2.26-17.09-1,3.79-.66,8.28,0,12.09-.42-1.07-.88-2.09-1.3-3,.1-.21,.21-.42,.32-.63l-.32,.62c-.64-1.37-1.2-2.41-1.39-2.76-.06-.86-.19-1.71-.4-2.55,0,0-.92,9.52-1.87,13.58-.85-3.54-.42-7.26,1.2-10.51-1.72,2.95-2.9,6.17-3.51,9.52-.7-2.49-1.71-4.88-3-7.12,1.49,3.03,1.96,6.46,1.34,9.77l-.31,.17c-.91-4.36-1.74-12.97-1.74-12.97-.61,3.02-.61,6.14,0,9.16-.57-1.43-1.22-2.83-1.94-4.19,0-2.07,.53-4.11,1.53-5.92-1.03,1.91-1.95,3.88-2.76,5.89,.63-3.82,.94-8.31,0-12.09,0,0-1.21,12.57-2.47,17.92-1.13-4.66-.59-9.57,1.54-13.87-2.27,3.89-3.83,8.14-4.63,12.56-.94-3.29-2.28-6.45-4-9.4,1.97,3.96,2.61,8.45,1.82,12.79l-.41,.23c-1.19-5.71-2.29-17.08-2.29-17.08-1,3.79-.66,8.28,0,12.09-.8-2.02-1.72-3.98-2.75-5.89,2.64,4.53,1.59,13.65,1.59,13.65l-2.3,1,23.09,8.53,18.83-10.86m-35.95-.62h0Zm10-2.45c-.61-2.1-.91-4.28-.89-6.47,.96,2.01,1.29,4.27,.93,6.47h-.04Zm10.5-8.11c-.42,.84-1,2.09-1.54,3.42,.39-2.18,.51-4.39,.37-6.6,.56,.99,.97,2.06,1.21,3.18h-.04Zm-.14,7.46c-.65-2.41-.58-4.97,.2-7.34,.42,2.44,.35,4.93-.2,7.34Zm-11.36-58.8c6.45,21.14,7.42,40.5,6.22,59.14m16.84-42.02c-4.66,15.28-5.36,29.26-4.49,42.73m-24.84-1.67c.87-13.48,.16-27.46-4.5-42.74"/>
    <path id="grass-flowerP" class="cls-3" d="M161.25,327.7c.56-.57,.88-1.35,.88-2.15,0-1.72-1.39-3.11-3.11-3.11-1.21,0-2.31,.7-2.82,1.8-.53-.98-1.55-1.6-2.67-1.61-1.72,0-3.11,1.39-3.11,3.11h0c0,.5,.13,.98,.37,1.41-1.08,.51-1.77,1.59-1.77,2.78,0,1.72,1.4,3.12,3.12,3.12h0c.11,0,.21-.06,.32-.07,.14,1.69,1.63,2.94,3.32,2.8,1.43-.12,2.59-1.22,2.78-2.64,.5,.38,1.11,.59,1.74,.6,1.71-.02,3.07-1.42,3.05-3.13-.02-1.29-.83-2.44-2.05-2.87l-.05-.04Zm-4,2.51c-.5-.38-1.12-.6-1.75-.61-.11,.01-.22,.04-.32,.07-.02-.4-.12-.78-.3-1.14,.64-.31,1.15-.83,1.46-1.47,.38,.66,1.01,1.15,1.74,1.37-.46,.49-.74,1.12-.81,1.78h-.02Zm28.84,16.81c0,1.24-1.01,2.25-2.25,2.25-.08,0-.16,0-.24,0-.08,1.22-1.13,2.14-2.35,2.07-1.06-.07-1.93-.89-2.05-1.95-.37,.27-.81,.43-1.26,.44-1.25,0-2.26-1.01-2.26-2.26,0-.97,.62-1.83,1.55-2.13-.85-.9-.81-2.32,.08-3.17,.9-.85,2.32-.81,3.17,.08,.16,.17,.3,.37,.4,.58,.57-1.09,1.91-1.52,3.01-.96,.75,.39,1.22,1.17,1.2,2.02,0,.35-.1,.69-.27,1,.78,.38,1.27,1.16,1.27,2.02Zm-35.18-1.21c0,1.24-1.01,2.25-2.25,2.25-.46,0-.9-.16-1.26-.44-.14,1.21-1.24,2.08-2.45,1.94-1.06-.12-1.88-.99-1.95-2.05-.08,.02-.16,.04-.24,.05-1.24,.03-2.26-.95-2.29-2.19-.02-.89,.49-1.71,1.29-2.09-.17-.31-.26-.65-.27-1,0-1.24,1.01-2.25,2.25-2.25,.81,0,1.54,.45,1.93,1.16,.52-1.12,1.85-1.61,2.97-1.1,1.12,.52,1.61,1.85,1.1,2.97-.11,.23-.25,.44-.43,.62,.94,.27,1.59,1.13,1.6,2.11Z"/>
    <path id="grass-flowerC" class="cls-21" d="M158.52,328.81c0,1.27-1.03,2.29-2.29,2.29s-2.29-1.03-2.29-2.29,1.03-2.29,2.29-2.29h0c1.27,0,2.29,1.03,2.29,2.29Zm22.34,15.75c-.92,0-1.66,.74-1.66,1.66,0,.92,.74,1.66,1.66,1.66,.92,0,1.66-.74,1.66-1.66h0c0-.92-.74-1.66-1.65-1.66h-.01Zm-35.14-1.72c-.92,0-1.67,.73-1.67,1.65,0,.92,.73,1.67,1.65,1.67,.92,0,1.67-.73,1.67-1.65h0c0-.92-.74-1.67-1.65-1.67Z"/>
  </g>
  <g id="spruce">
    <polygon id="spruce-trunkS" class="cls-17" points="481.9 376.99 493.72 383.84 493.72 315.25 481.87 308.42 481.9 376.99"/>
    <polygon id="spruce-trunkL" class="cls-19" points="493.72 383.84 505.55 377.01 505.6 308.4 493.7 315.27 493.72 383.84"/>
    <polygon id="spruce1S" class="cls-1" points="446.2 260.41 422.5 287.85 493.76 329 493.71 287.86 446.2 260.41"/>
    <polygon id="spruce1L" class="cls-28" points="493.71 287.78 493.74 328.98 564.88 287.79 541.29 260.38 493.71 287.78"/>
    <polyline id="spruce2S" class="cls-7" points="493.73 95.85 422.51 260.42 493.71 301.57"/>
    <polygon id="spruce2L" class="cls-12" points="493.73 95.87 564.91 260.42 493.7 301.56 493.73 95.87"/>
  </g>
  <g id="bushes">
    <circle id="bushes3S" class="cls-14" cx="457.61" cy="364.21" r="31.87"/>
    <path id="bushes3L" class="cls-32" d="M468.75,334.33c-17.6,.08-31.8,14.42-31.72,32.02,.06,13.25,8.32,25.09,20.74,29.71,17.6-.08,31.8-14.42,31.72-32.02-.06-13.25-8.32-25.09-20.74-29.71Z"/>
    <circle id="bushes2S" class="cls-23" cx="446.83" cy="377.66" r="27.09"/>
    <path id="bushes2L" class="cls-5" d="M456.29,352.29c-14.96,.06-27.04,12.24-26.98,27.2,.05,11.27,7.07,21.34,17.63,25.27,14.96-.06,27.04-12.24,26.98-27.2-.05-11.27-7.07-21.34-17.63-25.27Z"/>
    <circle id="bushes1S" class="cls-7" cx="470.48" cy="381.84" r="21.98"/>
    <path id="bushes1L" class="cls-12" d="M478.16,361.27c-12.12-.07-22.01,9.71-22.07,21.83-.05,9.29,5.75,17.61,14.49,20.77,12.12,.07,22.01-9.71,22.07-21.83,.05-9.29-5.75-17.61-14.49-20.77Z"/>
    <path id="bushes-flowerP" class="cls-3" d="M472.51,376.63c.14,.1,.31,.16,.48,.16,.46,.02,.85-.35,.87-.81,.01-.39-.24-.74-.62-.84,.15-.16,.24-.37,.24-.59,0-.47-.38-.85-.85-.85-.33,0-.63,.2-.76,.5-.22-.41-.73-.56-1.13-.34-.28,.15-.45,.44-.44,.75,0,.13,.04,.26,.1,.38-.42,.21-.59,.72-.38,1.14,.14,.28,.43,.46,.75,.47h.08c.05,.46,.46,.79,.92,.74,.39-.04,.7-.35,.74-.74v.03Zm-1-1.26c.17-.09,.31-.23,.39-.4,.1,.18,.27,.32,.47,.38-.12,.13-.19,.3-.21,.48-.14-.11-.31-.17-.48-.17h-.09c-.01-.1-.04-.2-.08-.29Zm-22.06-12.68c.15-.16,.24-.37,.24-.59,0-.47-.38-.85-.85-.85-.33,0-.63,.19-.77,.49-.15-.26-.43-.43-.73-.43-.47,0-.85,.38-.85,.85h0c0,.13,.04,.26,.1,.38-.42,.21-.59,.72-.38,1.14,.14,.28,.43,.46,.75,.47h.09c.04,.44,.4,.77,.84,.78,.42-.01,.76-.34,.79-.76,.14,.11,.31,.17,.48,.17,.47,0,.85-.38,.85-.85h0c0-.36-.22-.68-.56-.8Zm-1.09,.68c-.14-.1-.3-.16-.47-.16h-.09c0-.11-.04-.22-.09-.32,.18-.08,.32-.22,.4-.4,.1,.18,.27,.32,.47,.39-.12,.14-.2,.31-.22,.49Zm36.33,15.26c.21-.21,.33-.49,.33-.79,0-.63-.5-1.14-1.12-1.15-.45,0-.87,.26-1.05,.67-.2-.37-.58-.6-1-.59-.63,0-1.14,.51-1.14,1.14,0,.18,.05,.36,.14,.52-.57,.26-.82,.92-.56,1.49,.19,.41,.6,.67,1.05,.66h.12c.06,.62,.62,1.07,1.24,1,.51-.05,.92-.44,1-.94,.18,.14,.41,.22,.64,.22,.63-.01,1.13-.53,1.11-1.16-.01-.48-.32-.9-.77-1.05l.02-.02Zm-1.45,.92c-.19-.14-.41-.22-.65-.22h-.11c-.02-.14-.06-.29-.12-.42,.23-.11,.42-.3,.53-.53,.14,.25,.37,.43,.64,.52-.17,.17-.28,.4-.29,.65Zm-17.14-38.48c.2-.2,.31-.47,.32-.75,0-.63-.52-1.13-1.15-1.13-.44,0-.83,.26-1.02,.65-.2-.37-.58-.59-1-.59-.62,0-1.13,.5-1.13,1.13,0,.19,.04,.37,.13,.53-.38,.18-.63,.57-.64,1,0,.63,.51,1.14,1.14,1.14h.12c.04,.62,.57,1.08,1.19,1.04,.54-.03,.98-.45,1.04-.98,.19,.14,.41,.22,.65,.22,.63-.01,1.13-.53,1.11-1.16-.01-.48-.32-.9-.77-1.05v-.04Zm-1.45,.92c-.18-.14-.41-.22-.64-.22h-.12c-.01-.15-.05-.29-.11-.42,.23-.11,.42-.3,.53-.53,.14,.24,.36,.43,.63,.51-.16,.19-.26,.41-.29,.66Zm-21.65,45.02c.44-.45,.44-1.17-.01-1.61-.21-.21-.5-.33-.81-.33-.43,.01-.82,.27-1,.67-.2-.37-.58-.6-1-.59-.63,0-1.14,.51-1.14,1.14,0,.18,.04,.35,.13,.51-.57,.27-.81,.95-.54,1.52,.19,.4,.6,.65,1.04,.65h.12c.06,.62,.62,1.07,1.24,1,.51-.05,.92-.44,1-.94,.2,.14,.43,.2,.67,.19,.63,0,1.14-.51,1.14-1.14,0-.5-.35-.94-.84-1.07Zm-1.46,.92c-.18-.14-.41-.22-.64-.23h-.12c-.01-.15-.05-.29-.11-.42,.23-.11,.42-.3,.53-.54,.14,.25,.37,.43,.64,.52-.17,.18-.28,.42-.3,.67Zm33.53-2.7c.35-.37,.34-.96-.03-1.31-.17-.16-.4-.25-.63-.25-.36,0-.68,.21-.83,.53-.24-.45-.8-.61-1.24-.37-.3,.16-.49,.48-.48,.82,0,.15,.04,.29,.11,.42-.46,.21-.67,.75-.46,1.21,.15,.34,.49,.55,.86,.54h.1c.03,.48,.43,.85,.91,.86,.46,0,.85-.35,.91-.81,.15,.12,.33,.18,.52,.18,.51,0,.92-.4,.93-.91,0-.41-.26-.77-.65-.89v-.02Zm-1.19,.75c-.15-.12-.33-.18-.52-.18h-.09c-.01-.12-.05-.23-.1-.34,.19-.09,.35-.24,.44-.43,.11,.2,.29,.35,.51,.42-.13,.14-.21,.31-.24,.5v.03Zm-2.73-33.35c.39,.32,.96,.27,1.28-.12,.15-.18,.22-.4,.21-.63,0-.4-.26-.76-.65-.88,.17-.17,.27-.4,.27-.64,0-.51-.42-.93-.93-.93h0c-.36,0-.69,.21-.84,.54-.16-.29-.46-.48-.8-.48-.51,0-.93,.42-.93,.93h0c0,.15,.04,.29,.11,.42-.32,.15-.53,.47-.53,.83,0,.51,.42,.93,.94,.93h.09c.04,.48,.44,.85,.92,.85,.45-.02,.81-.37,.86-.82Zm-1.1-1.33c.19-.09,.35-.25,.44-.44,.11,.2,.29,.35,.51,.42-.13,.15-.2,.33-.23,.52-.15-.11-.33-.17-.52-.18h-.1c-.01-.11-.04-.22-.1-.32Zm-30.88,18.1c.04,.48,.43,.84,.91,.85,.46,0,.85-.35,.91-.81,.15,.12,.33,.18,.52,.19,.51-.01,.92-.44,.91-.95,0-.39-.26-.73-.63-.86,.17-.17,.26-.4,.26-.64,0-.51-.42-.92-.94-.92-.35,0-.68,.21-.83,.53-.25-.44-.81-.6-1.25-.34-.29,.16-.46,.47-.46,.79,0,.15,.04,.29,.11,.42-.32,.15-.53,.47-.53,.83,0,.51,.42,.93,.93,.93h0l.1-.02Zm1.15-1.77c.12,.2,.3,.35,.52,.42-.13,.15-.21,.33-.24,.52-.15-.12-.33-.18-.52-.18h-.1c0-.12-.04-.23-.09-.34,.19-.09,.34-.24,.43-.42Z"/>
    <path id="bushes-flowerC" class="cls-21" d="M472.5,375.45c0,.35-.28,.63-.63,.63-.35,0-.63-.28-.63-.63,0-.35,.28-.63,.63-.63s.63,.28,.63,.63h0Zm-24.42-13.08c-.35,0-.63,.27-.64,.62s.27,.63,.62,.64,.63-.27,.64-.62c0,0,0-.01,0-.02,0-.34-.28-.61-.62-.62Zm34.77,15.87c-.46,0-.84,.38-.84,.84,0,.46,.38,.84,.84,.84,.46,0,.84-.38,.84-.84h0c0-.46-.38-.83-.84-.84Zm-18.59-37.6c-.46,0-.84,.38-.84,.84s.38,.84,.84,.84,.84-.38,.84-.84-.38-.84-.84-.84h0Zm-23.11,45.9c-.47,0-.85,.37-.86,.84,0,.47,.37,.85,.84,.86,.47,0,.85-.37,.86-.84,0,0,0-.01,0-.02-.02-.45-.39-.8-.84-.81v-.03Zm32.41-1.73c-.37,0-.68,.3-.68,.68s.3,.68,.68,.68,.68-.3,.68-.68-.3-.68-.68-.68h0Zm-3.11-34.16c-.38,0-.69,.3-.7,.68,0,.38,.3,.69,.68,.7,.38,0,.69-.3,.7-.68h0c0-.39-.3-.69-.68-.7Zm-29.5,17.5c0-.37-.31-.67-.69-.67-.37,0-.67,.31-.67,.69,0,.37,.31,.67,.68,.67,.37,0,.68-.3,.68-.68h0Z"/>
  </g>
  <g id="maple">
    <polygon id="maple-trunkS" class="cls-17" points="298.24 280.07 310.57 287.28 310.57 172.63 298.17 165.41 298.24 280.07"/>
    <polygon id="maple-trunkL" class="cls-19" points="310.57 287.21 322.91 280.07 323.02 165.41 310.57 172.59 310.57 287.21"/>
    <circle id="mapleS" class="cls-7" cx="310.46" cy="88.82" r="88.82"/>
    <path id="mapleL" class="cls-12" d="M341.49,5.58c-49.06,.2-88.66,40.14-88.46,89.2,.15,36.96,23.17,69.95,57.8,82.86,49.06-.2,88.66-40.14,88.46-89.2-.15-36.96-23.17-69.95-57.8-82.86Z"/>
  </g>
  <g id="rocks">
    <path id="rocks2S" class="cls-31" d="M325.79,266.34c2.04,.8,4.02,1.75,5.92,2.84,3.19-6.26,6.41-16.01,8.03-17.26,6.26-4.82-12.47-16.67-8.31-21.54-4.17,4.87-.07,8.48-6.33,13.3-2.37,1.81,2.83,6.85-1.31,7.48-7.33,1.12-14.56,7.51-18.36,14.07,11.18-1.22,19.57,.82,20.35,1.11Z"/>
    <path id="rocks2L" class="cls-15" d="M339.69,251.92c-1.62,1.25-4.84,10.97-8.03,17.26,6.73,4.02,12.77,9.09,17.91,15.02,.46,.49,.92,1,1.36,1.48,4.76-1.31,8.25-3.34,9.34-6.09,1.57-3.93-3.21-5.56-8.2-20.22-4.41-12.82-3.35-19.33-9.75-25.02-3.71-3.29-9.3-5.81-10.89-3.99-4.17,4.9,14.57,16.75,8.26,21.57Z"/>
    <path id="rocks-grass2" class="cls-26" d="M358.2,288.89c-.66-2.07-1.7-6.57,.31-9.97-.78,1.45-1.47,2.94-2.08,4.47,.6-3.03,.6-6.15,0-9.17,0,0-.84,8.62-1.74,12.96l-.32-.17c-.59-3.3-.11-6.7,1.39-9.7-1.29,2.24-2.29,4.64-2.99,7.13-.61-3.36-1.79-6.58-3.51-9.53,1.62,3.26,2.05,6.98,1.21,10.52-1-4.05-1.88-13.59-1.88-13.59-.6,3.03-.6,6.15,0,9.17-.61-1.53-1.31-3.02-2.08-4.47,1.99,3.43,1,7.98,.31,9.97l-1.85,1,.68,1.25,3.17-.57,2.26,1-1.12,.6,2.99,2.31,3.36-1.55,3.17,.58,.67-1.25-1.93-.99Zm-3.68-1.14h0Zm-41.45-5.98c-2.11-5.31-5.67-16.87-1.09-26.24-1.77,3.94-3.31,7.98-4.62,12.11,.69-7.67,.65-16.62-1.81-24,0,0-.55,22.71-2.08,34.21l-.86-.38c-2.18-8.52-1.56-17.52,1.78-25.66-2.99,6.12-5.19,12.59-6.57,19.26-2.72-12.66-10.97-24.27-10.97-24.27,4.87,8.21,6.7,17.87,5.16,27.29-3.27-10.44-7.51-35.21-7.51-35.21-1.37,7.66-.11,16.53,1.69,24.01-1.89-3.88-3.99-7.65-6.31-11.29,5.89,8.61,4.05,20.56,2.72,26.12l-4.67,2.88,1.99,3.13,8.19-2.13,6.12,2.27-2.8,1.72,8.24,5.46,8.51-4.66,8.4,.9,1.53-3.39-5.02-2.13Zm-9.85-2.27h0Z"/>
    <path id="rocks1S" class="cls-11" d="M271.98,316.15c1.37-4.55,3.65-6.43,17.88-17.88,8.38-6.74,18.47-10.6,27.92-12.75,16.36-3.7,30.88-2.28,31.54-1.59l.25,.27c-5.12-5.92-11.15-10.99-17.86-15.02-1.9-1.1-3.87-2.05-5.91-2.84-.78-.29-9.17-2.32-20.35-1.11-11.26,1.13-21.96,5.5-30.79,12.57-14.23,11.45-28.08,31.43-20.63,41.56,4.43,5.98,18.16,5.69,30.22,3.34-7.94,1.19-14.22-.03-12.27-6.56Z"/>
    <path id="rocks1L" class="cls-10" d="M350.93,285.67c-.44-.5-.9-1-1.36-1.48l-.25-.27c-.66-.7-22.6-20.36-38.95-16.66-9.47,2.15-12.14,24.31-20.54,31-14.2,11.45-16.48,13.33-17.85,17.88-1.99,6.53,4.33,7.75,12.27,6.56,4.95-.79,9.79-2.13,14.44-3.99,10.17-4.05,8.43-8.26,17.54-10.06,1.51-.34,3.07-.42,4.61-.24,5.73,.76,6.98,5.9,13.16,6.73,1.72,.2,3.46,.13,5.16-.21,.38-.06,.76-.08,1.14-.08,.91,0,2.12,0,3.55,.12,4.64,.21,11.34,.4,15.96-1.99,5.49-2.94,.64-16.54-8.87-27.31Z"/>
    <path id="rocks-moss" class="cls-7" d="M333.84,231.6c.45-.43,2.06,.6,3.63,1.59,1.7,.95,3.21,2.22,4.43,3.74,1.05,1.4,2.38,3.18,1.7,4.54-.57,1.12-2.38,1.71-3.17,1.14s-.1-1.72-.68-4.54c-.31-1.48-.48-2.22-1.14-2.72-1-.78-1.99,.05-3.29-.68s-1.9-2.64-1.48-3.06Zm11.46,37.52c-1.54-1.48-2.23-3.47-1.81-3.85s2.3,1.59,3.17,1c.54-.6,.59-1.5,.12-2.15-.71-1-1.99-.21-4.2-1.14-1.66-.71-1.77-1.56-2.99-1.59-1.08,.07-2.07,.61-2.72,1.48-1.2,1.54-1.14,3.89-.45,4.2s1.91-1.73,2.72-1.37c.6,.27,.14,1.48,.68,2.83,.9,2.26,3.82,3.04,4.77,3.29,2.75,.74,5.51,.13,5.55-.34s-2.66-.29-4.84-2.36Zm-15.68,6.5c-2.69-.45-4.19,.66-6.86-.62-1.83-.87-1.81-1.73-3.55-2.56-3.43-1.67-7.27-.14-7.6,0-3.82,1.65-6.31,5.39-6.36,9.55,.09,2.99,1.92,3.54,1.83,6.73-.11,3.99-2.99,5.98-2.32,6.86,.84,1.06,5.98-.37,9.79-3.92,4.53-4.17,3.99-8.21,7.6-9.31,2.93-.9,6.08,.95,6.98,1.48,3.99,2.33,4.54,5.98,6.36,5.75,1.5-.18,2.71-2.8,2.7-4.99-.03-4.2-4.33-8.32-8.58-8.97Zm-42.67,29.11c-.87-.32-2.29,1.51-2.76,2.1-2.15,2.76-2.57,5.83-2.88,5.77s.44-2.66-.53-3.28-2.74,.71-3.8,1.83c-1.76,1.85-2.92,4.99-1.84,6.17,.67,.72,1.56,0,4.6,.52,2.21,.37,2.56,.88,3.28,.53,1.32-.64,.53-2.54,1.99-5.51,1.07-2.19,1.99-2.23,2.49-4.2,.34-1.58,.25-3.63-.55-3.94Z"/>
    <path id="rocks-grass1" class="cls-26" d="M326.56,311.91c-.66-2.07-1.69-6.56,.32-9.97-.78,1.45-1.48,2.94-2.09,4.47,.6-3.03,.6-6.15,0-9.17,0,0-.84,8.63-1.75,12.96l-.3-.21c-.6-3.3-.12-6.7,1.38-9.7-1.29,2.24-2.29,4.64-2.99,7.13-.61-3.36-1.8-6.59-3.52-9.53,1.6,3.26,2.01,6.99,1.15,10.52-1-4.06-1.87-13.59-1.87-13.59-.6,3.03-.6,6.14,0,9.16-.62-1.51-1.33-2.99-2.11-4.42,1.99,3.43,1,7.98,.31,9.97l-1.84,1,.67,1.25,3.17-.58,2.26,1-1.11,.6,2.99,2.3,3.35-1.58,3.16,.6,.68-1.26-1.84-.95Zm-3.68-1.13h0Z"/>
  </g>
  <g id="sun">
    <circle id="sunS" class="cls-4" cx="574.58" cy="87.2" r="28.79"/>
    <path id="sunL" class="cls-2" d="M579.39,115.6c13.74-8.02,18.37-25.66,10.35-39.4-6.05-10.35-17.87-15.88-29.69-13.87-13.74,8.02-18.37,25.66-10.35,39.4,6.05,10.35,17.87,15.88,29.69,13.87Z"/>
  </g>
</svg>
